# xmcd
#
# Track frame offsets:
#	150
#	17700
#	35776
#	50225
#	67710
#	82353
#	98041
#	115785
#	131864
#	151016
#	173869
#
# Disc length: 2567 seconds
# Revision: 2
# Processed by: cddbd v1.5.2PL0 Copyright (c) Steve Scherf et al.
# Submitted via: dBpowerAMP V12.0
#
DISCID=920a050b
DTITLE=Ty Herndon,AKABoydTyroneHerndon,Meridian,MS - RightAboutNow
DYEAR=2006
DGENRE=Country
TTITLE0=Someday Soon
TTITLE1=In The Arms Of The One Who Loves Me
TTITLE2=You Still Own Me
TTITLE3=Mighty Mighty Love
TTITLE4=Right About Now
TTITLE5=Love Revival
TTITLE6=Hide
TTITLE7=Mercy Line
TTITLE8=We Are
TTITLE9=If I Could Only Have Her Love Back
TTITLE10=There Will be a Better Day
EXTD=
EXTT0=
EXTT1=
EXTT2=
EXTT3=
EXTT4=
EXTT5=
EXTT6=
EXTT7=
EXTT8=
EXTT9=
EXTT10=
PLAYORDER=
